<svg width="11" height="17" viewBox="0 0 11 17" fill="none" xmlns="http://www.w3.org/2000/svg">
<g clip-path="url(#clip0)">
<path d="M9.51099 0.00334505L7.31037 0C4.83804 0 3.2403 1.55295 3.2403 3.95653V5.78076H1.02767C0.83647 5.78076 0.681641 5.9276 0.681641 6.10875V8.75184C0.681641 8.93301 0.836647 9.07966 1.02767 9.07966H3.2403V15.7491C3.2403 15.9302 3.39513 16.0768 3.58633 16.0768H6.47319C6.66439 16.0768 6.81922 15.93 6.81922 15.7491V9.07966H9.40631C9.5975 9.07966 9.75233 8.93301 9.75233 8.75184L9.75339 6.10875C9.75339 6.02177 9.71685 5.93848 9.65205 5.87692C9.58726 5.81537 9.49899 5.78076 9.40718 5.78076H6.81922V4.23434C6.81922 3.49107 7.00618 3.11374 8.0282 3.11374L9.51064 3.11324C9.70166 3.11324 9.85649 2.96639 9.85649 2.78542V0.33116C9.85649 0.150361 9.70184 0.00367956 9.51099 0.00334505Z" fill="#797979"/>
</g>
<defs>
<clipPath id="clip0">
<rect width="11" height="16.1053" fill="white"/>
</clipPath>
</defs>
</svg>
