<svg width="36" height="35" viewBox="0 0 36 35" fill="none" xmlns="http://www.w3.org/2000/svg">
<g clip-path="url(#clip0)">
<path d="M35.7306 10.8035C35.6434 8.99576 35.3404 7.76123 34.8975 6.68116C34.4477 5.54796 33.7423 4.52153 32.8307 3.67312C31.9357 2.80916 30.8524 2.14033 29.6567 1.7138C28.5169 1.29426 27.2145 1.0074 25.3071 0.925249C23.3962 0.842326 22.7856 0.822632 17.9192 0.822632C13.0527 0.822632 12.4421 0.842326 10.5312 0.924731C8.62382 1.0074 7.32149 1.29452 6.18159 1.71432C4.9859 2.14059 3.90286 2.80916 3.00767 3.67312C2.09607 4.52127 1.39036 5.5477 0.940307 6.6809C0.497633 7.76123 0.194952 8.99576 0.108276 10.8032C0.0207803 12.6145 0 13.193 0 17.805C0 22.4174 0.0207803 22.9961 0.108276 24.8071C0.195226 26.6146 0.498179 27.8492 0.941128 28.9295C1.39092 30.0624 2.09635 31.0891 3.00794 31.9372C3.90286 32.8012 4.98618 33.4697 6.18185 33.8961C7.32149 34.3161 8.62409 34.6029 10.5314 34.6856C12.4428 34.7683 13.053 34.7877 17.9195 34.7877C22.7858 34.7877 23.3964 34.7683 25.3074 34.6856C27.2148 34.6029 28.5171 34.3161 29.657 33.8961C32.0639 33.0139 33.9667 31.2107 34.8975 28.9295C35.3407 27.8492 35.6434 26.6146 35.7306 24.8071C35.8175 22.9958 35.8383 22.4174 35.8383 17.8053C35.8383 13.193 35.8175 12.6145 35.7306 10.8035ZM32.505 24.668C32.4254 26.3238 32.1335 27.223 31.8881 27.8214C31.2852 29.3026 30.0502 30.4731 28.4873 31.0445C27.856 31.2769 26.9072 31.5537 25.16 31.6291C23.2709 31.711 22.7041 31.7281 17.9192 31.7281C13.1339 31.7281 12.5674 31.711 10.6781 31.6291C8.93114 31.5537 7.98236 31.2769 7.35075 31.0445C6.57258 30.7722 5.86851 30.3381 5.29049 29.774C4.69525 29.2262 4.23727 28.5591 3.94989 27.8214C3.70463 27.223 3.41262 26.3238 3.33305 24.668C3.24692 22.8774 3.2286 22.3402 3.2286 17.8056C3.2286 13.2707 3.24692 12.7338 3.33305 10.9429C3.41288 9.28702 3.70463 8.38782 3.94989 7.78948C4.23727 7.05172 4.69553 6.38445 5.29049 5.83664C5.86851 5.2725 6.57258 4.83845 7.35102 4.56636C7.98236 4.33365 8.93114 4.05715 10.6783 3.98149C12.5677 3.89986 13.1345 3.8825 17.9192 3.8825H17.9189C22.7036 3.8825 23.2703 3.89986 25.16 3.98175C26.9072 4.05715 27.8557 4.33391 28.4873 4.56636C29.2655 4.83871 29.9695 5.27276 30.5476 5.83664C31.1428 6.38445 31.6008 7.05172 31.8879 7.78948C32.1335 8.38782 32.4254 9.28702 32.505 10.9429C32.5912 12.7335 32.6095 13.2707 32.6095 17.8053C32.6095 22.3402 32.5914 22.8771 32.505 24.668Z" fill="#D9D9D9"/>
<path d="M17.9191 9.08435C12.8372 9.08435 8.71753 12.989 8.71753 17.8053C8.71753 22.6216 12.8372 26.5259 17.9191 26.5259C23.0013 26.5259 27.1209 22.6216 27.1209 17.8053C27.1209 12.989 23.0013 9.08435 17.9191 9.08435ZM17.9191 23.4661C14.6205 23.4658 11.9461 20.9315 11.9464 17.805C11.9464 14.6788 14.6205 12.1442 17.9194 12.1442C21.2183 12.1445 23.8923 14.6788 23.8923 17.805C23.8923 20.9315 21.218 23.4661 17.9191 23.4661Z" fill="#D9D9D9"/>
<path d="M29.6354 8.74C29.6354 9.86543 28.6727 10.7778 27.4852 10.7778C26.2974 10.7778 25.3347 9.86543 25.3347 8.74C25.3347 7.61432 26.2974 6.7019 27.4852 6.7019C28.6727 6.7019 29.6354 7.61432 29.6354 8.74Z" fill="#D9D9D9"/>
</g>
<defs>
<clipPath id="clip0">
<rect y="0.822632" width="35.8383" height="33.9654" fill="white"/>
</clipPath>
</defs>
</svg>
