<svg width="19" height="17" viewBox="0 0 19 17" fill="none" xmlns="http://www.w3.org/2000/svg">
<path d="M18.427 3.33869C17.7594 3.61074 17.0916 3.78063 16.4243 3.84887C17.178 3.42044 17.6879 2.81517 17.9535 2.03312C17.264 2.42068 16.5283 2.68583 15.746 2.82871C15.0567 2.13506 14.2098 1.78809 13.2047 1.78809C12.2428 1.78809 11.4228 2.10937 10.7441 2.75207C10.0659 3.39475 9.7267 4.17165 9.7267 5.08291C9.7267 5.32769 9.75537 5.57941 9.81284 5.83781C8.39145 5.76981 7.05808 5.43149 5.81252 4.82283C4.56702 4.2141 3.50999 3.40311 2.64143 2.38984C2.32556 2.89978 2.16758 3.45413 2.16758 4.05257C2.16758 4.61703 2.30753 5.14075 2.58764 5.62361C2.86756 6.10639 3.24452 6.49738 3.71833 6.79665C3.15831 6.77622 2.63429 6.63676 2.14623 6.37833V6.41912C2.14623 7.21487 2.41004 7.91349 2.9376 8.51554C3.46523 9.11751 4.13108 9.49643 4.93501 9.65292C4.63348 9.72764 4.32833 9.76505 4.0197 9.76505C3.81869 9.76505 3.59972 9.74807 3.36287 9.71431C3.58539 10.3738 3.99459 10.916 4.59033 11.3413C5.18618 11.7663 5.86098 11.9854 6.61475 11.9993C5.35138 12.9376 3.9121 13.4068 2.29694 13.4068C1.98821 13.4068 1.70832 13.3935 1.45703 13.3662C3.07224 14.3521 4.85249 14.8451 6.79789 14.8451C8.03259 14.8451 9.19194 14.66 10.2755 14.2893C11.3597 13.9188 12.2856 13.4223 13.0538 12.7998C13.8218 12.1776 14.4841 11.4619 15.0404 10.6526C15.5967 9.84329 16.0111 8.99839 16.2841 8.11773C16.5568 7.23687 16.6932 6.35468 16.6932 5.47043C16.6932 5.27999 16.6896 5.13725 16.6824 5.04199C17.3646 4.57297 17.946 4.00501 18.427 3.33869Z" fill="#6F6F6F"/>
</svg>
