<svg width="20" height="14" viewBox="0 0 20 14" fill="none" xmlns="http://www.w3.org/2000/svg">
<path d="M19.6697 10.7785C19.6469 10.7319 19.6256 10.6931 19.6058 10.6622C19.2786 10.104 18.6535 9.41889 17.7307 8.60662L17.7112 8.58801L17.7014 8.5789L17.6915 8.56955H17.6816C17.2628 8.19131 16.9976 7.93699 16.8865 7.80679C16.6833 7.55876 16.6378 7.30769 16.7489 7.05331C16.8273 6.86111 17.1221 6.45522 17.6324 5.83508C17.9008 5.50641 18.1134 5.24302 18.2705 5.04456C19.4029 3.61839 19.8938 2.70705 19.7431 2.31019L19.6847 2.21744C19.6454 2.16162 19.5439 2.11053 19.3804 2.06395C19.2167 2.01746 19.0073 2.00978 18.752 2.04076L15.9247 2.05926C15.8789 2.04389 15.8134 2.04532 15.7283 2.06395C15.6432 2.08259 15.6006 2.09193 15.6006 2.09193L15.5513 2.11522L15.5123 2.14321C15.4796 2.16171 15.4436 2.19425 15.4043 2.24077C15.3651 2.28712 15.3325 2.34153 15.3063 2.40352C14.9985 3.15377 14.6485 3.85131 14.2558 4.49612C14.0136 4.88061 13.7912 5.21383 13.5881 5.49596C13.3852 5.77801 13.215 5.9858 13.0777 6.11901C12.9401 6.25234 12.8161 6.35916 12.7045 6.43985C12.5933 6.52057 12.5083 6.55468 12.4494 6.54219C12.3905 6.52972 12.335 6.51735 12.2824 6.50497C12.1908 6.44913 12.1172 6.3732 12.0617 6.2771C12.0058 6.18101 11.9683 6.06005 11.9487 5.91433C11.9291 5.76852 11.9176 5.64311 11.9143 5.53766C11.9112 5.43235 11.9126 5.28338 11.9193 5.09118C11.9261 4.89889 11.9291 4.76877 11.9291 4.70056C11.9291 4.46491 11.934 4.20916 11.9437 3.93324C11.9536 3.65732 11.9616 3.43872 11.9683 3.27765C11.975 3.11643 11.9781 2.94588 11.9781 2.76606C11.9781 2.58624 11.9665 2.44521 11.9437 2.34287C11.9212 2.24064 11.8866 2.14142 11.841 2.04522C11.795 1.94912 11.7278 1.87478 11.6397 1.82201C11.5513 1.7693 11.4415 1.72747 11.3108 1.6964C10.9639 1.62203 10.5221 1.5818 9.98533 1.57554C8.76805 1.56316 7.98589 1.63763 7.639 1.79885C7.50156 1.86697 7.37719 1.96004 7.26599 2.07776C7.14815 2.21422 7.13172 2.28869 7.21679 2.30094C7.60954 2.35668 7.88757 2.49001 8.05122 2.7008L8.11019 2.81252C8.15606 2.8931 8.20186 3.03578 8.24769 3.24036C8.29347 3.44493 8.323 3.67124 8.336 3.91914C8.36866 4.37184 8.36866 4.75937 8.336 5.08173C8.30322 5.40423 8.27228 5.65529 8.24275 5.83511C8.21321 6.01493 8.16906 6.16064 8.11019 6.27221C8.05122 6.38382 8.01198 6.45203 7.99232 6.47678C7.97268 6.50155 7.95631 6.51715 7.94332 6.52327C7.85824 6.55416 7.76977 6.56989 7.6782 6.56989C7.5865 6.56989 7.4753 6.52643 7.34442 6.43959C7.21359 6.35274 7.0778 6.23345 6.93705 6.08151C6.79632 5.92956 6.6376 5.71718 6.46082 5.4444C6.28418 5.1716 6.10091 4.84921 5.9111 4.47719L5.75406 4.2074C5.65589 4.03383 5.52179 3.78111 5.35161 3.44946C5.18134 3.11767 5.03083 2.79674 4.89999 2.48672C4.84769 2.35651 4.76912 2.25739 4.66442 2.18918L4.61529 2.16119C4.58262 2.13644 4.53018 2.11015 4.45825 2.08212C4.38621 2.05415 4.31104 2.03408 4.23243 2.02173L1.54249 2.04023C1.26761 2.04023 1.08111 2.09923 0.982902 2.21706L0.9436 2.27279C0.923966 2.30384 0.914062 2.35342 0.914062 2.42166C0.914062 2.48988 0.933697 2.5736 0.972999 2.67272C1.36568 3.54706 1.79272 4.39028 2.2541 5.20252C2.71548 6.01477 3.11642 6.66905 3.45666 7.16479C3.79697 7.66088 4.14386 8.1291 4.49731 8.56919C4.85075 9.00945 5.08471 9.2916 5.19919 9.41554C5.31379 9.53972 5.40381 9.63255 5.46924 9.69455L5.71472 9.91772C5.8718 10.0666 6.10245 10.2448 6.4068 10.4525C6.71121 10.6603 7.04823 10.8648 7.41801 11.0665C7.78785 11.2679 8.21813 11.4322 8.70904 11.5593C9.1999 11.6865 9.67765 11.7375 10.1424 11.7129H11.2714C11.5003 11.6941 11.6738 11.626 11.7917 11.5083L11.8308 11.4616C11.8571 11.4246 11.8817 11.3672 11.9043 11.2897C11.9273 11.2123 11.9387 11.1269 11.9387 11.034C11.932 10.7674 11.9534 10.5272 12.0024 10.3133C12.0514 10.0995 12.1071 9.93825 12.1695 9.82968C12.2318 9.7212 12.3022 9.62966 12.3805 9.55545C12.4589 9.48109 12.5148 9.43603 12.5477 9.42052C12.5803 9.40492 12.6063 9.39434 12.6259 9.38798C12.783 9.33841 12.9679 9.38642 13.1807 9.53226C13.3935 9.67797 13.5931 9.85788 13.7797 10.0717C13.9663 10.2858 14.1904 10.5259 14.4521 10.7924C14.7141 11.0591 14.9431 11.2573 15.1393 11.3877L15.3355 11.4994C15.4667 11.5737 15.6369 11.642 15.8463 11.704C16.0555 11.7659 16.2386 11.7815 16.3959 11.7505L18.909 11.7134C19.1577 11.7134 19.351 11.6743 19.4882 11.5969C19.6257 11.5194 19.7074 11.4341 19.7337 11.3412C19.76 11.2483 19.7614 11.1428 19.7387 11.0248C19.7154 10.9072 19.6925 10.8249 19.6697 10.7785Z" fill="#6F6F6F"/>
</svg>
