<svg width="18" height="15" viewBox="0 0 18 15" fill="none" xmlns="http://www.w3.org/2000/svg">
<path d="M17.2146 2.6536C16.568 1.92544 15.3742 1.62842 13.0943 1.62842H4.81831C2.48624 1.62842 1.27221 1.94459 0.628046 2.71982C0 3.47567 0 4.58936 0 6.13073V9.06858C0 12.0547 0.745172 13.5709 4.81831 13.5709H13.0943C15.0714 13.5709 16.167 13.3088 16.8758 12.6661C17.6027 12.0072 17.9128 10.9313 17.9128 9.06858V6.13073C17.9128 4.50523 17.8642 3.38497 17.2146 2.6536ZM11.5001 8.00525L7.74196 9.86591C7.65795 9.90752 7.56607 9.92816 7.4743 9.92816C7.37041 9.92816 7.26675 9.90166 7.17494 9.849C7.00205 9.74976 6.89648 9.57224 6.89648 9.38075V5.67135C6.89648 5.48019 7.00176 5.30285 7.1743 5.20354C7.3469 5.10425 7.56156 5.09747 7.74063 5.18559L11.4988 7.03427C11.69 7.12831 11.81 7.3153 11.8103 7.51932C11.8106 7.7235 11.691 7.91077 11.5001 8.00525Z" fill="#6F6F6F"/>
</svg>
